PathFileType	4	(X/Y/Z)	S:\OneDrive - The University of Tokyo\ìåëÂéˆã∆\ÉoÉCÉÅÉJ\ë™íË\hirabayashi_2\Trimmed\Trimmed_BarR1Hirabayashi1.trc
DataRate	CameraRate	NumFrames	NumMarkers	Units	OrigDataRate	OrigDataStartFrame	OrigNumFrames
200.00	200.00	       14	12	mm	200.00	94	       373
Frame#	Time	BarR0			BarR50			BarR100			BarR130			BarR180			BarR230			BarL0			BarL50			BarL100			BarL130			BarL180			BarL230			
		X1	Y1	Z1	X2	Y2	Z2	X3	Y3	Z3	X4	Y4	Z4	X5	Y5	Z5	X6	Y6	Z6	X7	Y7	Z7	X8	Y8	Z8	X9	Y9	Z9	X10	Y10	Z10	X11	Y11	Z11	X12	Y12	Z12	

94	0.465	-578.16321	2752.54102	1664.31750	-606.05609	2303.71875	1643.76587	-640.23187	1850.88464	1630.35779	-663.01001	1349.34229	1630.39526	-691.56506	903.46661	1643.84802	-715.04944	456.38193	1663.70715	-1114.23621	2808.05688	1664.47083	-1141.08362	2356.25757	1667.47815	-1171.45801	1905.88928	1668.36816	-1199.01807	1404.03552	1668.84973	-1226.83484	952.51508	1667.91125	-1244.87146	506.22604	1667.26099	
95	0.470	-578.18781	2752.53467	1664.31201	-606.05249	2303.74658	1643.81433	-640.25903	1850.91565	1630.41541	-663.03302	1349.35132	1630.46802	-691.49463	903.54492	1644.11121	-715.04510	456.34695	1663.70703	-1114.22229	2808.07886	1664.47852	-1141.11023	2356.24609	1667.46375	-1171.47217	1905.88660	1668.36267	-1199.02344	1404.01563	1668.82617	-1226.84509	952.52429	1667.92151	-1244.86829	506.22784	1667.27271	
96	0.475	-578.18158	2752.55005	1664.30530	-606.07733	2303.74878	1643.86755	-640.26141	1850.92688	1630.48438	-663.04248	1349.37439	1630.53101	-691.50983	903.54810	1644.13501	-715.06183	456.36792	1663.71313	-1114.21875	2808.07422	1664.48950	-1141.07727	2356.21802	1667.47900	-1171.45728	1905.88464	1668.36560	-1199.00037	1404.04736	1668.85181	-1226.85339	952.51074	1667.91711	-1244.86926	506.19965	1667.26733	
97	0.480	-578.17108	2752.57397	1664.31628	-606.08856	2303.75928	1643.90002	-640.28900	1850.92334	1630.53955	-663.08337	1349.39465	1630.57556	-691.53894	903.56677	1644.18994	-715.03638	456.36639	1663.70679	-1114.28430	2808.03760	1664.46570	-1141.10547	2356.23120	1667.47913	-1171.47693	1905.85901	1668.36804	-1198.99243	1404.04126	1668.84106	-1226.83472	952.52057	1667.92212	-1244.86572	506.20688	1667.27173	
98	0.485	-578.17841	2752.56909	1664.32068	-606.11389	2303.79028	1643.92932	-640.35406	1850.95068	1630.57483	-663.13416	1349.39539	1630.62415	-691.66681	903.53625	1644.01819	-715.07397	456.36188	1663.69592	-1114.27319	2808.02173	1664.46338	-1141.10425	2356.21143	1667.47827	-1171.45752	1905.89575	1668.34631	-1198.99731	1404.02942	1668.83325	-1226.83472	952.50983	1667.92786	-1244.86743	506.19336	1667.26074	
99	0.490	-578.19464	2752.58057	1664.30225	-606.15033	2303.79980	1643.96204	-640.40546	1850.97449	1630.59583	-663.20026	1349.41504	1630.62427	-691.63397	903.58929	1644.23071	-715.07715	456.38989	1663.70703	-1114.24304	2808.03027	1664.46716	-1141.08765	2356.21875	1667.46912	-1171.45728	1905.87903	1668.35303	-1199.04053	1403.99841	1668.80640	-1226.84180	952.51080	1667.90442	-1244.84668	506.19876	1667.27454	
100	0.495	-578.18774	2752.55835	1664.31653	-606.17426	2303.76270	1643.96021	-640.41412	1850.96875	1630.60706	-663.22791	1349.42126	1630.65540	-691.61084	903.60767	1644.23206	-715.08612	456.37820	1663.70581	-1114.21362	2808.03564	1664.45618	-1141.09912	2356.22266	1667.47070	-1171.45789	1905.87793	1668.34216	-1199.00684	1404.01074	1668.80762	-1226.81958	952.49701	1667.91077	-1244.84827	506.20267	1667.27588	
101	0.500	-578.21973	2752.57935	1664.32239	-606.20160	2303.79321	1643.96069	-640.46204	1850.95752	1630.58716	-663.26917	1349.39771	1630.63782	-691.66388	903.59271	1644.22925	-715.10205	456.38068	1663.71790	-1114.23962	2808.02100	1664.45984	-1141.10925	2356.21924	1667.46594	-1171.44165	1905.88599	1668.35693	-1199.02686	1404.01038	1668.83459	-1226.82129	952.50378	1667.89905	-1244.84143	506.18793	1667.25867	
102	0.505	-578.23560	2752.55347	1664.30591	-606.19849	2303.78174	1643.94543	-640.49768	1850.97498	1630.56140	-663.33044	1349.41479	1630.60254	-691.67853	903.60101	1644.22070	-715.09668	456.35931	1663.69373	-1114.24219	2808.05054	1664.46484	-1141.05957	2356.23853	1667.47607	-1171.44482	1905.89587	1668.35608	-1199.01550	1404.00122	1668.81152	-1226.82947	952.50562	1667.90491	-1244.85828	506.21918	1667.27002	
103	0.510	-578.26898	2752.54126	1664.30713	-606.20453	2303.78076	1643.90051	-640.52258	1850.97180	1630.51892	-663.35394	1349.38660	1630.56262	-691.69208	903.60626	1644.17932	-715.11353	456.37009	1663.70569	-1114.28906	2808.03809	1664.48804	-1141.06860	2356.25439	1667.47327	-1171.42908	1905.88403	1668.35291	-1198.97437	1404.04333	1668.84424	-1226.81982	952.51740	1667.89990	-1244.83997	506.21091	1667.26733	
104	0.515	-578.25037	2752.52783	1664.31104	-606.22150	2303.76001	1643.88818	-640.55219	1850.94788	1630.47766	-663.34808	1349.39136	1630.50854	-691.70728	903.59253	1644.15295	-715.12866	456.37103	1663.71082	-1114.21277	2808.03833	1664.47363	-1141.10010	2356.23267	1667.47729	-1171.44922	1905.89270	1668.35547	-1198.97424	1404.07617	1668.83752	-1226.83813	952.52905	1667.91321	-1244.84253	506.21466	1667.27002	
105	0.520	-578.26251	2752.51343	1664.29639	-606.19556	2303.75903	1643.84692	-640.55566	1850.94189	1630.41418	-663.35339	1349.37695	1630.44617	-691.69720	903.59344	1644.10852	-715.11798	456.36459	1663.69495	-1114.20740	2808.03638	1664.48193	-1141.09985	2356.22070	1667.46509	-1171.43933	1905.87585	1668.36877	-1199.01440	1404.03357	1668.82312	-1226.82227	952.52570	1667.91357	-1244.85535	506.22040	1667.26318	
106	0.525	-578.24823	2752.49390	1664.29858	-606.18805	2303.75659	1643.78113	-640.54773	1850.93005	1630.37183	-663.36652	1349.36072	1630.37585	-691.69031	903.58228	1644.07166	-715.13184	456.34604	1663.69934	-1114.20068	2808.05078	1664.46643	-1141.07007	2356.23438	1667.49060	-1171.44312	1905.90076	1668.35461	-1199.01440	1403.98511	1668.82996	-1226.82483	952.50977	1667.92041	-1244.84485	506.21066	1667.27271	
107	0.530	-578.23383	2752.49683	1664.30066	-606.19434	2303.75537	1643.73669	-640.54871	1850.90308	1630.30347	-663.36127	1349.34595	1630.31519	-691.65680	903.57813	1644.03418	-715.11194	456.34424	1663.70544	-1114.21863	2808.05713	1664.46094	-1141.07397	2356.23730	1667.47705	-1171.45129	1905.86987	1668.36157	-1199.02112	1404.02173	1668.83362	-1226.81604	952.51233	1667.90161	-1244.83289	506.19046	1667.26929	
